<svg width="69" height="39" viewBox="0 0 69 39" fill="none" xmlns="http://www.w3.org/2000/svg">
<g clip-path="url(#clip0)">
<path d="M23.8135 34.504C23.8135 34.504 27.0756 -4.29919 68.5041 14.6614C68.5041 14.6614 60.5664 15.9843 56.7606 22.5984C53.1723 28.9921 44.7996 44.4252 26.5319 36.2677C26.5319 36.2677 30.6639 19.9528 49.6927 15.9843C49.8015 15.9843 35.1221 16.4252 23.8135 34.504Z" fill="#C49A6C"/>
<path d="M21.7473 29.874C21.7473 29.874 33.9258 3.41732 0 0C0 0 4.67567 3.85827 4.67567 9.59055C4.67567 15.1024 4.45819 28.3307 19.2463 29.9843C19.2463 29.9843 22.6172 17.748 11.6348 7.93701C11.6348 7.93701 20.9861 13.8898 21.7473 29.874Z" fill="#C49A6C"/>
</g>
<defs>
<clipPath id="clip0">
<rect width="68.5039" height="38.5827" fill="white"/>
</clipPath>
</defs>
</svg>
