<svg width="253" height="92" viewBox="0 0 253 92" fill="none" xmlns="http://www.w3.org/2000/svg">
<g clip-path="url(#clip0)">
<path d="M0 58.7335C0 56.7509 2.75 51.5467 8.5 42.8729C6.5 42.3773 4.75 41.6338 3.25 40.6426C1.75 39.4035 1 38.1644 1 36.6774C1 35.4383 1.25 34.447 2 33.7036C2.75 32.9601 3 32.9601 3 33.4558C3 33.7036 2.75 33.9514 2.5 34.447C2.25 34.9427 2 35.1905 2 35.6861C2 37.4209 2.75 38.66 4 39.6513C5.25 40.6426 7 41.386 9 41.6338C13 35.6861 17.25 29.9863 21.25 24.782C25.25 19.5778 27.75 16.8518 28.5 16.8518C28.75 16.8518 29 17.0996 29.25 17.3474C29.5 17.5953 29.5 18.0909 29.5 18.3387C23 26.269 17 34.1992 11.75 41.8817C12.25 41.8817 12.75 41.8817 13.5 41.8817C18.25 41.8817 23.75 40.8904 30 38.66C36.25 36.6774 41.25 34.447 44.5 32.2167C47.75 29.9863 50.25 27.7559 51.75 25.5255C53.25 23.2951 54 21.3126 54 19.33C54 17.3474 53.5 15.6127 52.25 14.1258C51 12.6388 49.25 11.6476 47.25 11.1519C45 10.6563 43.25 10.4085 41.5 10.4085C36 10.4085 29.5 11.6476 22.25 13.8779C15.25 16.604 10.25 18.8344 7.75 20.8169C7 21.5604 6.5 22.056 6.75 22.5517C7 23.0473 7 23.2951 7 23.2951C6.75 23.2951 6.75 23.2951 6.5 23.0473C5.25 22.3038 4.5 21.5604 4.25 20.5691C4 19.5778 3.75 19.0822 3.75 18.5865C3.75 18.0909 4 17.8431 4.25 17.5953C6.25 14.8692 10.75 12.1432 17.75 9.91281C24.75 7.68243 31.75 6.19551 38.75 5.45204C40 5.45204 41.5 5.20422 43.25 5.20422C45 5.20422 47.25 5.45204 49.5 6.19551C52 6.93897 53.75 7.93025 55.25 9.66499C57 11.6476 58 14.1258 58 16.8518C58 20.8169 56.25 24.5342 52.75 28.4994C50.75 30.7297 48.5 32.7123 45.5 34.1992C41.25 36.6774 36 38.9078 29.75 40.6426C23.75 42.3773 18.5 43.3686 14 43.3686C13 43.3686 11.75 43.3686 10.75 43.1208C6 49.8119 3.25 54.7683 2 57.99C1.75 58.9813 1.5 59.4769 0.75 59.4769C0 59.4769 0 59.2291 0 58.7335Z" fill="white"/>
<path d="M72 45.1033C71.5 45.8468 70.75 46.5902 70.25 47.3337C69.75 48.0772 69 49.0684 68 50.5554C67 51.7945 66.75 53.0336 66.75 54.0249C66.75 55.0161 67.25 55.5118 68 55.5118C68.75 55.5118 70 55.0161 72 54.0249C75.75 52.0423 79.75 48.8206 84 44.8555C84.5 44.3599 84.75 44.3599 85 44.6077V44.8555C85 45.1033 85 45.1033 84.75 45.3511C75.75 53.777 69.25 57.99 65.25 57.99C64 57.99 63 57.4943 62.25 56.7509C61.5 56.0074 61 55.0161 61 54.0249C61 53.0336 61.5 51.2988 62.5 49.0684C60.25 52.0423 57.75 54.2727 55 55.7596C52.25 57.2465 50.25 58.2378 48.75 58.2378C47.25 58.2378 46 57.7422 45 56.9987C44 56.0074 43.5 55.0161 43.5 53.5292C43.5 49.8119 45.25 46.0946 48.75 42.3773C51.25 39.6513 54.5 37.6687 58.5 36.6774C60.25 36.1818 62 35.934 63.5 35.934C65.25 35.934 66.75 36.4296 68.25 37.1731C69.75 38.1643 70.75 39.1556 71.25 40.3947C72.75 40.3947 74 40.8904 74.5 42.1295C74.5 42.3773 74.75 42.6251 74.75 42.8729C74.75 43.1208 74.5 43.6164 74.25 44.112C73 43.8642 72.5 44.3599 72 45.1033ZM66.25 37.4209C65.25 37.4209 63.75 37.6687 62.25 38.4122C59.5 39.6513 57 41.386 54.75 44.3599C51 48.8206 49 52.0423 49 54.0249C49 55.0161 49.5 55.7596 50.25 55.7596C51 55.7596 52.25 55.264 54 54.2727C55.75 53.2814 58 51.5466 60.75 48.8206C61 48.5728 61.5 48.0772 62.5 47.0859C63.5 46.0946 64.5 45.3511 65.25 44.6077C67.75 42.1295 69 40.1469 69 39.1556C68.75 37.9165 68 37.4209 66.25 37.4209Z" fill="white"/>
<path d="M102.5 41.386C100.25 44.1121 98.25 46.3425 97 48.5728C95.5 50.8032 94.75 52.2901 94.75 53.2814C94.75 54.2727 95.25 54.5205 96.25 54.5205C97.25 54.5205 99.5 53.5293 102.75 51.2989C106 49.0685 109 46.8381 112 44.1121C112.25 43.8642 112.5 43.8642 112.75 43.8642C113 43.8642 113 44.1121 113 44.3599C113 44.6077 113 44.8555 112.75 45.1033C106 51.2989 101 55.0162 97.5 56.5031C96 56.9987 94.75 57.4944 94.25 57.4944C91.75 57.4944 90 56.9987 89.25 56.2553C88 55.5118 87.5 54.5205 87.5 53.5292C87.5 51.5467 88 50.0598 88.75 49.0685C91.25 45.599 93.25 42.3773 94.75 39.8991C95.25 39.1557 95.25 38.66 94.5 38.4122C93.75 38.1644 93 37.9165 92 37.9165C91 37.9165 90.5 37.9165 90.5 37.9165C87 42.6251 83.5 46.3425 80 48.8207C79.5 49.0685 79.25 49.0685 79.25 48.8207C79.25 48.325 79.5 47.8294 80 47.3337C83.75 44.3599 86.75 40.8904 89 37.4209C88.5 37.1731 88.25 36.6774 88.25 36.1818C88.25 35.6862 88.25 34.9427 88.25 34.1992C88.25 33.4558 88.75 32.4645 89.5 31.2254C90.75 28.995 92 28.0037 93.5 28.0037C94.75 28.0037 95.25 28.4994 95.25 29.7385C95.25 31.4732 94.5 33.208 92.75 35.1905C92 36.1818 91.25 36.6774 90.5 37.1731C92.5 36.6774 95.25 36.1818 99 36.1818C100.75 36.1818 102 36.9253 103 38.1644C103 38.4122 103.25 38.66 103.25 39.1557C103.5 39.8991 103 40.6426 102.5 41.386Z" fill="white"/>
<path d="M137.75 45.1033C137.25 45.8468 136.5 46.5902 136 47.3337C135.5 48.0772 134.75 49.0684 133.75 50.5554C132.75 51.7945 132.5 53.0336 132.5 54.0249C132.5 55.0161 133 55.5118 133.75 55.5118C134.5 55.5118 135.75 55.0161 137.75 54.0249C141.5 52.0423 145.5 48.8206 149.75 44.8555C150.25 44.3599 150.5 44.3599 150.75 44.6077V44.8555C150.75 45.1033 150.75 45.1033 150.5 45.3511C141.5 53.777 135 57.99 131 57.99C129.75 57.99 128.75 57.4943 128 56.7509C127.25 56.0074 126.75 55.0161 126.75 54.0249C126.75 53.0336 127.25 51.2988 128.25 49.0684C126 52.0423 123.5 54.2727 120.75 55.7596C118 57.2465 116 58.2378 114.5 58.2378C113 58.2378 111.75 57.7422 110.75 56.9987C109.75 56.0074 109.25 55.0161 109.25 53.5292C109.25 49.8119 111 46.0946 114.5 42.3773C117 39.6513 120.25 37.6687 124.25 36.6774C126 36.1818 127.75 35.934 129.25 35.934C131 35.934 132.5 36.4296 134 37.1731C135.5 38.1643 136.5 39.1556 137 40.3947C138.5 40.3947 139.75 40.8904 140.25 42.1295C140.25 42.3773 140.5 42.6251 140.5 42.8729C140.5 43.1208 140.25 43.6164 140 44.112C138.75 43.8642 138.25 44.3599 137.75 45.1033ZM132 37.4209C131 37.4209 129.5 37.6687 128 38.4122C125.25 39.6513 122.75 41.386 120.5 44.3599C116.75 48.8206 114.75 52.0423 114.75 54.0249C114.75 55.0161 115.25 55.7596 116 55.7596C116.75 55.7596 118 55.264 119.75 54.2727C121.5 53.2814 123.75 51.5466 126.5 48.8206C126.75 48.5728 127.25 48.0772 128.25 47.0859C129.25 46.0946 130.25 45.3511 131 44.6077C133.5 42.1295 134.75 40.1469 134.75 39.1556C134.75 37.9165 133.75 37.4209 132 37.4209Z" fill="white"/>
<path d="M169.25 53.2814C168.25 56.0074 167.75 58.2378 167.75 59.9726C167.75 61.7073 168 62.9464 168.75 63.9377C169 64.1855 169 64.1855 168.75 64.4333H168.5H168.25C166.5 63.1942 165.75 61.2117 165.75 58.4856C165.75 55.7596 166.25 52.7858 167.5 49.3163C165.25 52.0423 163.25 54.2727 161.25 56.0074C158.75 57.99 156.25 58.9813 153.5 58.9813C151.75 58.9813 150.25 58.4856 148.75 57.2465C147.25 56.2552 146.5 54.2727 146.5 51.7945C146.5 50.5554 146.75 49.0685 147.25 47.5815C146.25 48.5728 145.5 49.0685 145.25 49.3163C145.25 49.5641 145 49.5641 145 49.3163C145 49.0685 144.75 48.8206 144.75 48.8206C144.75 48.5728 145 48.325 145.25 48.0772C145.5 47.8293 147.5 45.8468 150.75 42.3773C152.75 40.1469 155 38.66 157.5 37.4209C160.25 36.1818 162.75 35.6861 165 35.6861C167.25 35.6861 168.75 36.1818 169.75 36.9252C170.75 37.6687 171.25 38.66 171.25 39.6513C173 35.6861 175.25 31.9688 177.25 28.4994C179.5 25.0299 181 22.5517 182.25 21.0647C183.5 19.5778 185.25 18.8344 187.25 18.8344C189.25 18.8344 190.75 19.33 192 20.5691C191 21.3126 188.75 23.5429 185.5 27.2602C182.25 30.9776 179.25 34.9427 176.25 39.4035C173.75 43.6164 171.25 48.325 169.25 53.2814ZM170 38.66C170 37.6687 169.25 37.1731 168 37.1731C167.25 37.1731 166.5 37.4209 165.25 37.6687C162.75 38.66 160.5 40.3947 158 43.1208C155 46.5902 153.5 49.5641 153.5 52.7858C153.5 54.5205 154 55.7596 155.25 56.0074C155.5 56.0074 155.75 56.2552 156 56.2552C158.25 56.2552 161.25 54.0249 165.5 49.8119C166.75 48.8206 167.5 47.5815 168.5 46.3424C169 45.1033 169.5 43.8642 170.25 42.1295C169.75 42.3773 169.5 42.3773 169 42.1295C168.75 41.8817 168.75 41.386 169.25 40.6426C169.75 40.1469 170 39.4035 170 38.66Z" fill="white"/>
<path d="M192.25 37.4209C190 39.6513 188.25 42.3773 187 45.599C185.5 48.8206 184.75 51.2988 184.75 52.5379C184.75 53.777 185.25 54.5205 186.25 54.5205C187.25 54.5205 189 53.777 191.5 52.2901C194 50.8032 196.75 48.5728 200 45.599C200.75 45.1033 201 45.1033 201 45.8468C201 45.8468 201 46.0946 200.75 46.0946C198.25 48.325 196.25 50.0597 194.5 51.5467C192.75 53.0336 190.75 54.2727 188.25 55.5118C186 56.7509 184 57.4943 182.5 57.4943C180.75 57.4943 179.25 56.9987 178.25 56.2552C177.25 55.5118 177 54.5205 177 53.5292C177 51.7945 177.25 50.3075 178 49.0684C178.75 48.0772 179.75 46.5902 181.5 44.6077C181 45.1033 180 45.8468 178.75 46.8381C177.5 47.8293 176.75 48.5728 176.25 49.0684C175.75 49.3163 175.5 49.3163 175.5 48.8206C175.5 48.5728 176 47.8293 176.75 47.3337C177.5 46.5902 179.5 44.8555 182.25 42.1295C185 39.4034 187 37.6687 188 37.1731C189 36.6774 189.75 36.4296 190.5 36.4296C191.25 36.4296 191.75 36.4296 192 36.6774C192.25 36.9252 192.5 37.1731 192.25 37.4209ZM193.25 33.2079C192.75 32.9601 192.5 32.2167 192.5 31.2254C192.5 30.2341 193 29.4906 194 28.4993C194.75 27.5081 196 27.0124 197.25 27.0124C197.75 27.0124 198 27.2602 198.5 27.5081C199 28.0037 199.25 28.4993 199 29.4906C199 30.4819 198.5 31.2254 197.75 31.9688C197 32.7123 196.25 33.2079 195.25 33.4558C194.5 33.9514 193.75 33.7036 193.25 33.2079Z" fill="white"/>
<path d="M194.25 52.538C194.25 52.538 194 52.538 194.25 52.538C194.25 52.2901 194.25 52.0423 194.5 52.0423C194.75 52.0423 194.75 52.0423 194.75 52.2901C195.75 54.2727 197.25 55.264 199.25 55.264C202 55.264 204.25 54.0249 206.25 51.2989C207.75 49.3163 209 47.3337 210 45.3512C211 43.3686 212 41.6338 212.75 40.3947C213.5 39.1556 214.75 37.6687 216.25 36.1818C217.75 34.6949 219.25 33.7036 220.5 33.2079C220.25 32.9601 219.75 32.9601 219 32.9601C218.25 32.9601 217 33.4558 215 34.447C213 35.4383 211 36.9253 209 38.4122C207 40.1469 205 41.8817 202.5 43.8642C200.25 45.8468 198.75 47.0859 198.25 47.5815C197.75 47.8294 197.5 47.8294 197.5 47.5815C197.5 47.3337 197.5 46.8381 198 46.5903C199.25 45.3512 201.25 43.6164 203.75 41.386C206.25 38.9078 208.25 37.1731 209.5 36.1818C210.75 35.1905 212.25 34.1992 214 33.2079C215.75 32.4645 217 31.9688 217.75 31.9688C219.75 31.9688 221 32.2167 221.5 32.9601C220.25 33.4558 219 34.9427 218.25 37.4209C217.5 39.8991 216.5 42.6251 215.25 45.8468C214.25 49.0685 212.75 51.5467 211.25 53.2814C212.5 52.7858 214.75 51.5467 217.5 49.5641C220.25 47.5815 222.75 45.599 225 43.3686C225.5 42.873 225.75 42.8729 226 43.1208V43.3686C226 43.6164 225.5 44.1121 224.5 45.1033C223.5 46.0946 222.25 47.0859 220.75 48.325C219.25 49.5641 217.5 50.8032 215.5 52.2901C211 55.264 206.75 56.9987 202.25 56.9987C198.25 58.2378 195.5 56.5031 194.25 52.538Z" fill="white"/>
<path d="M240.75 44.8555C243.5 43.3686 245 41.8817 245 40.3947C245 38.9078 244 38.1644 242.25 38.1644C241.25 38.1644 240.5 38.4122 239.5 38.9078C237.25 39.8991 235.25 41.6338 233.25 44.112C230.75 47.0859 229.5 49.8119 229.5 52.538C229.5 53.5292 229.75 54.5205 230.25 55.264C230.75 56.0074 231.75 56.5031 233.25 56.5031C235.75 56.5031 238.75 55.264 242.5 52.7858C246.25 50.3076 249.5 47.5815 252.25 45.1033C252.75 44.6077 253.25 44.3599 253.25 45.1033C253.25 45.3512 253 45.8468 252.75 46.0946C250.75 47.8294 249.5 49.0685 249 49.5641C248.25 50.0597 247 51.2988 245.25 52.7858C243.25 54.2727 241.75 55.264 240.5 56.0074C236.75 57.99 233.75 58.9813 231 58.9813C228.5 58.9813 226.5 58.4856 225 57.2465C223.5 56.0074 222.75 54.5205 222.75 52.2901C222.75 47.8294 224.75 44.112 228.75 40.8904C232.75 37.6687 236.75 36.1818 241.25 36.1818C244.25 36.1818 246 36.6774 247 37.9165C247.5 38.4122 247.5 39.1556 247.5 39.8991C247.5 40.6426 247.25 41.386 246.75 42.1295C245.75 43.6164 244 45.1033 241.5 46.3424C239 47.5815 236.5 48.0772 234.25 48.0772C233.25 48.0772 233 48.0772 232.75 47.8294C232.75 47.5815 232.75 47.5815 233 47.5815C233.25 47.5815 233.5 47.5815 233.75 47.5815C235.5 47.0859 238 46.3424 240.75 44.8555Z" fill="white"/>
<path d="M40.75 72.8593H42.25V85.9937H47.75V87.4807H40.75V72.8593Z" fill="white"/>
<path d="M64 83.7634L65.25 84.259C64.75 85.0025 64.5 85.4981 64 85.9937C63.5 86.4894 63 86.7372 62.25 86.985C61.5 87.2328 61 87.2328 60 87.2328C58.25 87.2328 56.75 86.7372 56 85.4981C55 84.259 54.5 83.0199 54.5 81.533C54.5 80.2939 55 79.0548 55.75 77.8157C56.75 76.5766 58.25 75.8331 60 75.8331C61.75 75.8331 63.25 76.5766 64.5 77.8157C65.25 78.8069 65.75 80.046 65.75 81.533H56C56 82.7721 56.5 83.7633 57.25 84.5068C58 85.2503 59 85.7459 60 85.7459C60.5 85.7459 61 85.7459 61.5 85.4981C62 85.2503 62.5 85.0025 62.75 84.7546C63.25 85.0025 63.5 84.5068 64 83.7634ZM64 80.7895C63.75 80.046 63.5 79.5504 63.25 79.0548C63 78.5591 62.5 78.3113 61.75 78.0635C61.25 77.8157 60.5 77.5678 60 77.5678C59 77.5678 58 77.8157 57.25 78.5591C56.75 79.0548 56.25 79.7982 56 80.7895H64Z" fill="white"/>
<path d="M84 76.5766V87.2329H82.5V85.4981C82 86.2416 81.25 86.7372 80.5 86.985C79.75 87.2329 79 87.4807 78.25 87.4807C76.75 87.4807 75.5 86.985 74.25 85.7459C73.25 84.7546 72.75 83.2677 72.75 81.7808C72.75 80.2939 73.25 78.807 74.5 77.8157C75.5 76.8244 77 76.0809 78.5 76.0809C79.5 76.0809 80.25 76.3288 81 76.5766C81.75 77.0722 82.25 77.5679 83 78.3113V76.3287H84V76.5766ZM78.25 77.5679C77.5 77.5679 76.75 77.8157 76 78.0635C75.25 78.5591 74.75 79.0548 74.5 79.5504C74 80.2939 74 81.0373 74 81.7808C74 82.5243 74.25 83.2677 74.5 84.0112C75 84.7547 75.5 85.2503 76 85.4981C76.75 85.9938 77.25 85.9938 78 85.9938C78.75 85.9938 79.5 85.7459 80.25 85.4981C81 85.0025 81.5 84.5068 81.75 84.0112C82 83.2677 82.25 82.5243 82.25 81.7808C82.25 80.5417 81.75 79.5504 81 78.807C80.5 78.0635 79.5 77.5679 78.25 77.5679Z" fill="white"/>
<path d="M96.5 72.3636V73.6027C96 73.3549 95.5 73.3549 95.25 73.3549C95 73.3549 94.75 73.3549 94.5 73.6027C94.25 73.6027 94.25 73.8505 94.25 74.0984C94.25 74.3462 94.25 74.594 94.25 75.3375V76.8244H96.5V78.0635H94.25V87.4807H92.75V78.0635H91.25V76.8244H92.75V75.0896C92.75 74.3462 92.75 73.8505 93 73.3549C93.25 73.1071 93.5 72.8593 93.75 72.6114C94 72.3636 94.5 72.3636 95 72.3636C95.25 72.1158 96 72.3636 96.5 72.3636Z" fill="white"/>
<path d="M104 72.1158C104.25 72.1158 104.5 72.1158 104.75 72.3636C105 72.6114 105 72.8592 105 73.1071C105 73.3549 105 73.6027 104.75 73.8505C104.5 74.3462 104.25 74.3462 104 74.3462C103.75 74.3462 103.5 74.3462 103.25 74.0983C103 73.8505 103 73.6027 103 73.3549C103 73.1071 103 72.8592 103.25 72.6114C103.5 72.3636 103.75 72.1158 104 72.1158ZM103.25 76.5766H104.75V87.2328H103.25V76.5766Z" fill="white"/>
<path d="M112.75 76.5766H114.25V78.5591C114.75 77.8157 115.5 77.32 116 76.8244C116.75 76.5766 117.5 76.3287 118.25 76.3287C119 76.3287 119.75 76.5766 120.5 76.8244C121 77.32 121.5 77.8157 122 78.5591C122.25 79.3026 122.5 80.2939 122.5 81.7808V87.2328H121V82.0286C121 80.7895 121 80.046 120.75 79.5504C120.5 78.8069 120.25 78.3113 119.75 78.0635C119.25 77.8157 118.75 77.5678 118 77.5678C117.25 77.5678 116.5 77.8157 115.75 78.3113C115 78.8069 114.75 79.5504 114.5 80.2939C114.25 80.7895 114.25 81.7808 114.25 83.2677V87.2328H112.75V76.5766Z" fill="white"/>
<path d="M139.25 76.5766H140.75V85.0025C140.75 86.4894 140.5 87.4807 140.25 88.2241C140 89.2154 139.25 89.9589 138.25 90.4545C137.25 90.9502 136.25 91.198 135 91.198C134 91.198 133.25 90.9502 132.5 90.7023C131.75 90.4545 131.25 90.2067 130.75 89.7111C130.25 89.2154 129.75 88.7198 129.5 87.7285H131C131.5 88.472 132 88.9676 132.5 89.2154C133.25 89.4632 134 89.7111 135 89.7111C136 89.7111 136.75 89.4632 137.5 89.2154C138.25 88.9676 138.5 88.472 139 87.9763C139.25 87.4807 139.5 86.4894 139.5 85.4981V85.0025C139 85.7459 138.25 86.2416 137.5 86.4894C136.75 86.7372 136 86.985 135 86.985C134 86.985 133 86.7372 132.25 86.2416C131.5 85.7459 130.75 85.0025 130.25 84.259C129.75 83.5155 129.5 82.5243 129.5 81.533C129.5 80.5417 129.75 79.5504 130.25 78.807C130.75 78.0635 131.5 77.32 132.25 76.8244C133.25 76.3288 134 76.0809 135 76.0809C135.75 76.0809 136.5 76.3288 137.25 76.5766C138 76.8244 138.5 77.5679 139.25 78.3113V76.5766ZM135.25 77.5679C134.5 77.5679 133.75 77.8157 133 78.0635C132.25 78.5591 131.75 79.0548 131.5 79.5504C131 80.2939 131 81.0373 131 81.7808C131 83.0199 131.5 84.0112 132.25 84.7546C133 85.4981 134 85.9937 135.25 85.9937C136.5 85.9937 137.5 85.4981 138.25 84.7546C139 84.0112 139.5 83.0199 139.5 81.7808C139.5 81.0373 139.25 80.2939 139 79.5504C138.75 78.807 138.25 78.3113 137.5 78.0635C136.75 77.8157 136 77.5679 135.25 77.5679Z" fill="white"/>
<path d="M165.5 72.8593L172.25 87.2328H170.75L168.5 82.5243H162.25L160 87.2328H158.5L165.5 72.8593ZM165.5 75.8331L163 81.0373H168L165.5 75.8331Z" fill="white"/>
<path d="M179 76.5766H180.5V78.0635C181 77.5679 181.25 77.0722 181.75 76.5766C182.25 76.3288 182.75 76.0809 183.25 76.0809C183.75 76.0809 184 76.0809 184.5 76.3287L183.75 77.5679C183.5 77.32 183.25 77.32 183 77.32C182.5 77.32 182 77.5679 181.75 77.8157C181.25 78.3113 181 78.807 180.75 79.5504C180.5 80.0461 180.5 81.2852 180.5 83.2677V86.985H179V76.5766Z" fill="white"/>
<path d="M191.75 72.6114H193.25V76.5765H195.5V77.8157H193.25V87.2328H191.75V77.8157H190V76.5765H192V72.6114H191.75Z" fill="white"/>
<path d="M208 77.8157L207 78.807C206.25 78.0635 205.5 77.8157 204.75 77.8157C204.25 77.8157 204 78.0635 203.5 78.3113C203.25 78.5591 203 79.0548 203 79.3026C203 79.5504 203.25 80.0461 203.5 80.2939C203.75 80.5417 204.25 81.0373 205.25 81.533C206.25 82.0286 207 82.5243 207.25 83.0199C207.5 83.5155 207.75 84.0112 207.75 84.7547C207.75 85.7459 207.5 86.4894 206.75 86.985C206.25 87.4807 205.25 87.9763 204.5 87.9763C204 87.9763 203.25 87.7285 202.75 87.4807C202.25 87.2329 201.75 86.7372 201.25 86.4894L202 85.4981C202.75 86.2416 203.5 86.7372 204.25 86.7372C204.75 86.7372 205.25 86.4894 205.75 86.2416C206.25 85.9938 206.25 85.4981 206.25 85.0025C206.25 84.5068 206 84.259 205.75 84.0112C205.5 83.7634 205 83.2677 204 82.7721C203 82.2764 202.25 81.7808 202 81.2852C201.75 80.7895 201.5 80.2939 201.5 79.5504C201.5 78.8069 201.75 78.0635 202.25 77.5678C202.75 77.0722 203.5 76.8244 204.25 76.8244C206 76.3287 207 76.8244 208 77.8157Z" fill="white"/>
<path d="M140 28.7472C140 28.7472 142.75 -3.4695 178 12.1432C178 12.1432 171.25 13.1345 168 18.8344C165 24.0386 157.75 36.9253 142.25 30.2341C142.25 30.2341 145.75 16.604 162 13.3823C162 13.3823 149.5 13.6301 140 28.7472Z" fill="white"/>
<path d="M138 24.7821C138 24.7821 148.25 2.72603 119.5 0C119.5 0 123.5 3.22167 123.5 7.93026C123.5 12.391 123.25 23.543 136 24.7821C136 24.7821 138.75 14.6214 129.5 6.44333C129.5 6.69115 137.5 11.6476 138 24.7821Z" fill="white"/>
</g>
<defs>
<clipPath id="clip0">
<rect width="253" height="91.4458" fill="white"/>
</clipPath>
</defs>
</svg>
