<svg width="295" height="107" viewBox="0 0 295 107" fill="none" xmlns="http://www.w3.org/2000/svg">
<g clip-path="url(#clip0)">
<path d="M0 68.3678C0 66.0601 3.20109 60.0022 9.89427 49.9057C7.56621 49.3287 5.52915 48.4633 3.7831 47.3095C2.03706 45.8671 1.16403 44.4247 1.16403 42.6939C1.16403 41.2516 1.45504 40.0977 2.32806 39.2323C3.20109 38.3669 3.4921 38.3669 3.4921 38.9438C3.4921 39.2323 3.20109 39.5207 2.91008 40.0977C2.61907 40.6746 2.32806 40.9631 2.32806 41.54C2.32806 43.5593 3.20109 45.0017 4.65613 46.1556C6.11117 47.3095 8.14822 48.1749 10.4763 48.4633C15.1324 41.54 20.0795 34.9052 24.7357 28.8473C29.3918 22.7894 32.3019 19.6162 33.1749 19.6162C33.4659 19.6162 33.7569 19.9047 34.0479 20.1932C34.3389 20.4817 34.3389 21.0586 34.3389 21.3471C26.7727 30.5781 19.7885 39.8092 13.6774 48.7518C14.2594 48.7518 14.8414 48.7518 15.7144 48.7518C21.2436 48.7518 27.6458 47.5979 34.921 45.0017C42.1961 42.6939 48.0163 40.0977 51.7994 37.5014C55.5825 34.9052 58.4926 32.309 60.2386 29.7127C61.9847 27.1165 62.8577 24.8087 62.8577 22.501C62.8577 20.1932 62.2757 18.1739 60.8207 16.4431C59.3656 14.7122 57.3286 13.5584 55.0005 12.9814C52.3814 12.4045 50.3444 12.116 48.3073 12.116C41.9051 12.116 34.3389 13.5584 25.8997 16.1546C17.7515 19.3278 11.9313 21.924 9.02125 24.2318C8.14822 25.0972 7.56621 25.6741 7.85721 26.2511C8.14822 26.828 8.14822 27.1165 8.14822 27.1165C7.85721 27.1165 7.85721 27.1165 7.56621 26.828C6.11117 25.9626 5.23814 25.0972 4.94713 23.9433C4.65613 22.7894 4.36512 22.2125 4.36512 21.6355C4.36512 21.0586 4.65613 20.7701 4.94713 20.4817C7.2752 17.3085 12.5133 14.1353 20.6616 11.5391C28.8098 8.94282 36.958 7.21199 45.1062 6.34658C46.5613 6.34658 48.3073 6.05811 50.3444 6.05811C52.3814 6.05811 55.0005 6.34658 57.6196 7.21199C60.5296 8.0774 62.5667 9.23129 64.3128 11.2506C66.3498 13.5584 67.5138 16.4431 67.5138 19.6162C67.5138 24.2318 65.4768 28.5588 61.4027 33.1744C59.0746 35.7706 56.4555 38.0784 52.9634 39.8092C48.0163 42.6939 41.9051 45.2902 34.6299 47.3095C27.6458 49.3287 21.5346 50.4826 16.2964 50.4826C15.1324 50.4826 13.6774 50.4826 12.5133 50.1942C6.98419 57.9829 3.7831 63.7523 2.32806 67.5024C2.03706 68.6563 1.74605 69.2332 0.873024 69.2332C0 69.2332 0 68.9448 0 68.3678Z" fill="#3C2415"/>
<path d="M83.8102 52.502C83.2282 53.3675 82.3551 54.2329 81.7731 55.0983C81.1911 55.9637 80.3181 57.1176 79.154 58.8484C77.99 60.2908 77.699 61.7331 77.699 62.887C77.699 64.0409 78.281 64.6178 79.154 64.6178C80.0271 64.6178 81.4821 64.0409 83.8102 62.887C88.1753 60.5792 92.8314 56.8291 97.7786 52.2136C98.3606 51.6366 98.6516 51.6366 98.9426 51.9251V52.2136C98.9426 52.502 98.9426 52.502 98.6516 52.7905C88.1753 62.5985 80.6091 67.5025 75.953 67.5025C74.4979 67.5025 73.3339 66.9256 72.4609 66.0602C71.5878 65.1948 71.0058 64.0409 71.0058 62.887C71.0058 61.7331 71.5878 59.7138 72.7519 57.1176C70.1328 60.5792 67.2227 63.1755 64.0216 64.9063C60.8205 66.6371 58.4925 67.791 56.7464 67.791C55.0004 67.791 53.5453 67.2141 52.3813 66.3486C51.2173 65.1948 50.6353 64.0409 50.6353 62.3101C50.6353 57.983 52.6723 53.6559 56.7464 49.3289C59.6565 46.1557 63.4396 43.8479 68.0957 42.694C70.1328 42.1171 72.1698 41.8286 73.9159 41.8286C75.953 41.8286 77.699 42.4056 79.445 43.271C81.1911 44.4249 82.3551 45.5787 82.9371 47.0211C84.6832 47.0211 86.1382 47.598 86.7203 49.0404C86.7203 49.3289 87.0113 49.6173 87.0113 49.9058C87.0113 50.1943 86.7203 50.7712 86.4292 51.3482C84.9742 51.0597 84.3922 51.6366 83.8102 52.502ZM77.117 43.5594C75.953 43.5594 74.2069 43.8479 72.4609 44.7133C69.2598 46.1557 66.3497 48.175 63.7306 51.6366C59.3655 56.8291 57.0374 60.5792 57.0374 62.887C57.0374 64.0409 57.6194 64.9063 58.4925 64.9063C59.3655 64.9063 60.8205 64.3293 62.8576 63.1755C64.8947 62.0216 67.5137 60.0023 70.7148 56.8291C71.0058 56.5406 71.5878 55.9637 72.7519 54.8098C73.9159 53.6559 75.0799 52.7905 75.953 51.9251C78.863 49.0404 80.3181 46.7326 80.3181 45.5787C80.0271 44.1364 79.154 43.5594 77.117 43.5594Z" fill="#3C2415"/>
<path d="M119.313 48.1751C116.694 51.3483 114.366 53.9445 112.911 56.5408C111.165 59.137 110.292 60.8678 110.292 62.0217C110.292 63.1756 110.874 63.4641 112.038 63.4641C113.202 63.4641 115.821 62.3102 119.604 59.7139C123.387 57.1177 126.879 54.5215 130.372 51.3483C130.663 51.0598 130.954 51.0598 131.245 51.0598C131.536 51.0598 131.536 51.3483 131.536 51.6367C131.536 51.9252 131.536 52.2137 131.245 52.5022C123.387 59.7139 117.567 64.041 113.493 65.7718C111.747 66.3488 110.292 66.9257 109.71 66.9257C106.8 66.9257 104.763 66.3488 103.89 65.4834C102.435 64.6179 101.853 63.4641 101.853 62.3102C101.853 60.0024 102.435 58.2716 103.308 57.1177C106.218 53.0791 108.546 49.329 110.292 46.4443C110.874 45.5789 110.874 45.0019 110.001 44.7134C109.128 44.425 108.255 44.1365 107.091 44.1365C105.927 44.1365 105.345 44.1365 105.345 44.1365C101.271 49.6174 97.1966 53.9445 93.1225 56.8292C92.5405 57.1177 92.2495 57.1177 92.2495 56.8292C92.2495 56.2523 92.5405 55.6753 93.1225 55.0984C97.4877 51.6367 100.98 47.5982 103.599 43.5596C103.017 43.2711 102.726 42.6941 102.726 42.1172C102.726 41.5403 102.726 40.6748 102.726 39.8094C102.726 38.944 103.308 37.7901 104.181 36.3478C105.636 33.7515 107.091 32.5977 108.837 32.5977C110.292 32.5977 110.874 33.1746 110.874 34.617C110.874 36.6363 110.001 38.6555 107.964 40.9633C107.091 42.1172 106.218 42.6941 105.345 43.2711C107.673 42.6941 110.874 42.1172 115.239 42.1172C117.276 42.1172 118.731 42.9826 119.895 44.425C119.895 44.7134 120.186 45.0019 120.186 45.5789C120.477 46.4443 119.895 47.3097 119.313 48.1751Z" fill="#3C2415"/>
<path d="M160.345 52.502C159.763 53.3675 158.89 54.2329 158.308 55.0983C157.726 55.9637 156.853 57.1176 155.689 58.8484C154.525 60.2908 154.234 61.7331 154.234 62.887C154.234 64.0409 154.816 64.6178 155.689 64.6178C156.562 64.6178 158.017 64.0409 160.345 62.887C164.71 60.5792 169.367 56.8291 174.314 52.2136C174.896 51.6366 175.187 51.6366 175.478 51.9251V52.2136C175.478 52.502 175.478 52.502 175.187 52.7905C164.71 62.5985 157.144 67.5025 152.488 67.5025C151.033 67.5025 149.869 66.9256 148.996 66.0602C148.123 65.1948 147.541 64.0409 147.541 62.887C147.541 61.7331 148.123 59.7138 149.287 57.1176C146.668 60.5792 143.758 63.1755 140.557 64.9063C137.356 66.6371 135.028 67.791 133.282 67.791C131.536 67.791 130.08 67.2141 128.916 66.3486C127.752 65.1948 127.17 64.0409 127.17 62.3101C127.17 57.983 129.207 53.6559 133.282 49.3289C136.192 46.1557 139.975 43.8479 144.631 42.694C146.668 42.1171 148.705 41.8286 150.451 41.8286C152.488 41.8286 154.234 42.4056 155.98 43.271C157.726 44.4249 158.89 45.5787 159.472 47.0211C161.218 47.0211 162.673 47.598 163.255 49.0404C163.255 49.3289 163.546 49.6173 163.546 49.9058C163.546 50.1943 163.255 50.7712 162.964 51.3482C161.509 51.0597 160.927 51.6366 160.345 52.502ZM153.652 43.5594C152.488 43.5594 150.742 43.8479 148.996 44.7133C145.795 46.1557 142.885 48.175 140.266 51.6366C135.901 56.8291 133.573 60.5792 133.573 62.887C133.573 64.0409 134.155 64.9063 135.028 64.9063C135.901 64.9063 137.356 64.3293 139.393 63.1755C141.43 62.0216 144.049 60.0023 147.25 56.8291C147.541 56.5406 148.123 55.9637 149.287 54.8098C150.451 53.6559 151.615 52.7905 152.488 51.9251C155.398 49.0404 156.853 46.7326 156.853 45.5787C156.853 44.1364 155.689 43.5594 153.652 43.5594Z" fill="#3C2415"/>
<path d="M197.012 62.0213C195.848 65.1945 195.266 67.7907 195.266 69.81C195.266 71.8293 195.557 73.2717 196.43 74.4255C196.721 74.714 196.721 74.714 196.43 75.0025H196.139H195.848C193.811 73.5601 192.938 71.2524 192.938 68.0792C192.938 64.906 193.52 61.4443 194.975 57.4058C192.356 60.5789 190.028 63.1752 187.7 65.1945C184.79 67.5022 181.88 68.6561 178.679 68.6561C176.642 68.6561 174.896 68.0792 173.15 66.6368C171.404 65.4829 170.531 63.1752 170.531 60.2905C170.531 58.8481 170.822 57.1173 171.404 55.3865C170.24 56.5403 169.367 57.1173 169.076 57.4058C169.076 57.6942 168.785 57.6942 168.785 57.4058C168.785 57.1173 168.494 56.8288 168.494 56.8288C168.494 56.5403 168.785 56.2519 169.076 55.9634C169.367 55.6749 171.695 53.3672 175.478 49.3286C177.806 46.7323 180.425 45.0015 183.335 43.5591C186.536 42.1168 189.446 41.5399 192.065 41.5399C194.684 41.5399 196.43 42.1168 197.594 42.9822C198.758 43.8476 199.34 45.0015 199.34 46.1554C201.378 41.5399 203.997 37.2128 206.325 33.1742C208.944 29.1356 210.69 26.2509 212.145 24.5201C213.6 22.7892 215.637 21.9238 217.965 21.9238C220.293 21.9238 222.039 22.5008 223.494 23.9431C222.33 24.8085 219.711 27.4048 215.928 31.7318C212.145 36.0589 208.653 40.6744 205.161 45.8669C202.251 50.7709 199.34 56.2519 197.012 62.0213ZM197.885 45.0015C197.885 43.8476 197.012 43.2707 195.557 43.2707C194.684 43.2707 193.811 43.5591 192.356 43.8476C189.446 45.0015 186.827 47.0208 183.917 50.194C180.425 54.2326 178.679 57.6942 178.679 61.4443C178.679 63.4636 179.261 64.906 180.716 65.1945C181.007 65.1945 181.298 65.4829 181.589 65.4829C184.208 65.4829 187.7 62.8867 192.647 57.9827C194.102 56.8288 194.975 55.3865 196.139 53.9441C196.721 52.5017 197.303 51.0594 198.176 49.0401C197.594 49.3286 197.303 49.3286 196.721 49.0401C196.43 48.7516 196.43 48.1747 197.012 47.3093C197.594 46.7323 197.885 45.8669 197.885 45.0015Z" fill="#3C2415"/>
<path d="M223.785 43.5591C221.166 46.1554 219.129 49.3286 217.674 53.0787C215.928 56.8288 215.055 59.7135 215.055 61.1559C215.055 62.5982 215.637 63.4636 216.801 63.4636C217.965 63.4636 220.002 62.5982 222.912 60.8674C225.822 59.1366 229.023 56.5403 232.806 53.0787C233.679 52.5017 233.97 52.5017 233.97 53.3671C233.97 53.3671 233.97 53.6556 233.679 53.6556C230.769 56.2519 228.441 58.2712 226.404 60.002C224.367 61.7328 222.039 63.1752 219.129 64.6175C216.51 66.0599 214.182 66.9253 212.436 66.9253C210.399 66.9253 208.653 66.3483 207.489 65.4829C206.325 64.6175 206.034 63.4636 206.034 62.3097C206.034 60.2905 206.325 58.5596 207.198 57.1173C208.071 55.9634 209.235 54.2326 211.272 51.9248C210.69 52.5017 209.526 53.3671 208.071 54.521C206.616 55.6749 205.743 56.5403 205.161 57.1173C204.579 57.4057 204.288 57.4057 204.288 56.8288C204.288 56.5403 204.87 55.6749 205.743 55.098C206.616 54.2326 208.944 52.2133 212.145 49.0401C215.346 45.8669 217.674 43.8476 218.838 43.2707C220.002 42.6937 220.875 42.4053 221.748 42.4053C222.621 42.4053 223.203 42.4053 223.494 42.6937C223.785 42.9822 224.076 43.2707 223.785 43.5591ZM224.949 38.6551C224.367 38.3667 224.076 37.5013 224.076 36.3474C224.076 35.1935 224.658 34.3281 225.822 33.1742C226.695 32.0203 228.15 31.4434 229.605 31.4434C230.187 31.4434 230.478 31.7318 231.06 32.0203C231.642 32.5972 231.933 33.1742 231.642 34.3281C231.642 35.482 231.06 36.3474 230.187 37.2128C229.314 38.0782 228.441 38.6551 227.277 38.9436C226.404 39.5205 225.531 39.2321 224.949 38.6551Z" fill="#3C2415"/>
<path d="M226.113 61.156C226.113 61.156 225.822 61.156 226.113 61.156C226.113 60.8675 226.113 60.5791 226.404 60.5791C226.695 60.5791 226.695 60.5791 226.695 60.8675C227.859 63.1753 229.605 64.3292 231.933 64.3292C235.134 64.3292 237.754 62.8868 240.082 59.7136C241.828 57.4059 243.283 55.0981 244.447 52.7903C245.611 50.4826 246.775 48.4633 247.648 47.0209C248.521 45.5786 249.976 43.8477 251.722 42.1169C253.468 40.3861 255.214 39.2322 256.669 38.6552C256.378 38.3668 255.796 38.3668 254.923 38.3668C254.05 38.3668 252.595 38.9437 250.267 40.0976C247.939 41.2515 245.611 42.9823 243.283 44.7131C240.955 46.7324 238.627 48.7517 235.716 51.0595C233.097 53.3673 231.351 54.8096 230.769 55.3866C230.187 55.675 229.896 55.675 229.896 55.3866C229.896 55.0981 229.896 54.5212 230.478 54.2327C231.933 52.7903 234.261 50.771 237.172 48.1748C240.082 45.2901 242.41 43.2708 243.865 42.1169C245.32 40.963 247.066 39.8091 249.103 38.6552C251.14 37.7898 252.595 37.2129 253.468 37.2129C255.796 37.2129 257.251 37.5014 257.833 38.3668C256.378 38.9437 254.923 40.6745 254.05 43.5593C253.177 46.444 252.013 49.6171 250.558 53.3673C249.394 57.1174 247.648 60.0021 245.902 62.0214C247.357 61.4445 249.976 60.0021 253.177 57.6943C256.378 55.3866 259.288 53.0788 261.907 50.4826C262.489 49.9056 262.78 49.9056 263.071 50.1941V50.4826C263.071 50.771 262.489 51.348 261.325 52.5019C260.161 53.6557 258.706 54.8096 256.96 56.252C255.214 57.6943 253.177 59.1367 250.849 60.8675C245.611 64.3292 240.664 66.3485 235.425 66.3485C230.769 67.7908 227.568 65.7715 226.113 61.156Z" fill="#3C2415"/>
<path d="M280.241 52.2137C283.442 50.4828 285.188 48.752 285.188 47.0212C285.188 45.2904 284.024 44.425 281.987 44.425C280.823 44.425 279.95 44.7134 278.786 45.2904C276.167 46.4443 273.838 48.4635 271.51 51.3483C268.6 54.8099 267.145 57.9831 267.145 61.1563C267.145 62.3102 267.436 63.464 268.018 64.3295C268.6 65.1949 269.764 65.7718 271.51 65.7718C274.42 65.7718 277.913 64.3295 282.278 61.4447C286.643 58.56 290.426 55.3869 293.627 52.5021C294.209 51.9252 294.791 51.6367 294.791 52.5021C294.791 52.7906 294.5 53.3676 294.209 53.656C291.881 55.6753 290.426 57.1177 289.844 57.6946C288.971 58.2716 287.516 59.7139 285.479 61.4447C283.151 63.1756 281.405 64.3295 279.95 65.1949C275.584 67.5026 272.092 68.6565 268.891 68.6565C265.981 68.6565 263.653 68.0796 261.907 66.6372C260.161 65.1949 259.288 63.464 259.288 60.8678C259.288 55.6753 261.616 51.3483 266.272 47.5981C270.928 43.848 275.584 42.1172 280.823 42.1172C284.315 42.1172 286.352 42.6941 287.516 44.1365C288.098 44.7134 288.098 45.5788 288.098 46.4443C288.098 47.3097 287.807 48.1751 287.225 49.0405C286.061 50.7713 284.024 52.5021 281.114 53.9445C278.204 55.3869 275.293 55.9638 272.674 55.9638C271.51 55.9638 271.219 55.9638 270.928 55.6753C270.928 55.3869 270.928 55.3869 271.219 55.3869C271.51 55.3869 271.801 55.3869 272.092 55.3869C274.129 54.8099 277.04 53.9445 280.241 52.2137Z" fill="#3C2415"/>
<path d="M47.4341 84.8101H49.1801V100.099H55.5823V101.83H47.4341V84.8101Z" fill="#9D722B"/>
<path d="M74.4978 97.503L75.9528 98.08C75.3708 98.9454 75.0798 99.5223 74.4978 100.099C73.9157 100.676 73.3337 100.965 72.4607 101.253C71.5877 101.542 71.0057 101.542 69.8416 101.542C67.8046 101.542 66.0585 100.965 65.1855 99.5223C64.0215 98.08 63.4395 96.6376 63.4395 94.9068C63.4395 93.4645 64.0215 92.0221 64.8945 90.5797C66.0585 89.1374 67.8046 88.272 69.8416 88.272C71.8787 88.272 73.6247 89.1374 75.0798 90.5797C75.9528 91.7336 76.5348 93.176 76.5348 94.9068H65.1855C65.1855 96.3492 65.7675 97.503 66.6405 98.3684C67.5136 99.2339 68.6776 99.8108 69.8416 99.8108C70.4236 99.8108 71.0057 99.8108 71.5877 99.5223C72.1697 99.2339 72.7517 98.9454 73.0427 98.6569C73.6247 98.9454 73.9157 98.3684 74.4978 97.503ZM74.4978 94.0414C74.2068 93.176 73.9157 92.599 73.6247 92.0221C73.3337 91.4451 72.7517 91.1567 71.8787 90.8682C71.2967 90.5797 70.4236 90.2913 69.8416 90.2913C68.6776 90.2913 67.5136 90.5797 66.6405 91.4452C66.0585 92.0221 65.4765 92.8875 65.1855 94.0414H74.4978Z" fill="#9D722B"/>
<path d="M97.7784 89.1375V101.542H96.0324V99.5224C95.4504 100.388 94.5774 100.965 93.7043 101.253C92.8313 101.542 91.9583 101.83 91.0853 101.83C89.3392 101.83 87.8842 101.253 86.4292 99.8109C85.2651 98.657 84.6831 96.9262 84.6831 95.1954C84.6831 93.4646 85.2651 91.7337 86.7202 90.5798C87.8842 89.426 89.6302 88.5605 91.3763 88.5605C92.5403 88.5605 93.4133 88.849 94.2864 89.1375C95.1594 89.7144 95.7414 90.2914 96.6144 91.1568V88.849H97.7784V89.1375ZM91.0853 90.2914C90.2122 90.2914 89.3392 90.5798 88.4662 90.8683C87.5932 91.4453 87.0112 92.0222 86.7202 92.5991C86.1381 93.4645 86.1381 94.33 86.1381 95.1954C86.1381 96.0608 86.4291 96.9262 86.7202 97.7916C87.3022 98.657 87.8842 99.234 88.4662 99.5224C89.3392 100.099 89.9212 100.099 90.7943 100.099C91.6673 100.099 92.5403 99.8109 93.4133 99.5224C94.2863 98.9455 94.8684 98.3686 95.1594 97.7916C95.4504 96.9262 95.7414 96.0608 95.7414 95.1954C95.7414 93.753 95.1594 92.5991 94.2864 91.7337C93.7043 90.8683 92.5403 90.2914 91.0853 90.2914Z" fill="#9D722B"/>
<path d="M112.329 84.2332V85.6755C111.747 85.3871 111.165 85.3871 110.874 85.3871C110.583 85.3871 110.292 85.3871 110.001 85.6755C109.71 85.6755 109.71 85.964 109.71 86.2525C109.71 86.541 109.71 86.8294 109.71 87.6948V89.4257H112.329V90.868H109.71V101.83H107.964V90.868H106.218V89.4257H107.964V87.4064C107.964 86.541 107.964 85.964 108.255 85.3871C108.546 85.0986 108.837 84.8101 109.128 84.5217C109.419 84.2332 110.001 84.2332 110.583 84.2332C110.874 83.9447 111.747 84.2332 112.329 84.2332Z" fill="#9D722B"/>
<path d="M121.059 83.9448C121.35 83.9448 121.641 83.9448 121.932 84.2333C122.223 84.5218 122.223 84.8102 122.223 85.0987C122.223 85.3872 122.223 85.6756 121.932 85.9641C121.641 86.5411 121.35 86.5411 121.059 86.5411C120.768 86.5411 120.477 86.5411 120.186 86.2526C119.895 85.9641 119.895 85.6757 119.895 85.3872C119.895 85.0987 119.895 84.8102 120.186 84.5218C120.477 84.2333 120.768 83.9448 121.059 83.9448ZM120.186 89.1373H121.932V101.542H120.186V89.1373Z" fill="#9D722B"/>
<path d="M131.244 89.1371H132.99V91.4449C133.572 90.5795 134.445 90.0025 135.027 89.4256C135.9 89.1371 136.773 88.8486 137.646 88.8486C138.519 88.8486 139.392 89.1371 140.265 89.4256C140.847 90.0025 141.429 90.5795 142.011 91.4449C142.302 92.3103 142.593 93.4642 142.593 95.195V101.541H140.847V95.4835C140.847 94.0411 140.847 93.1757 140.556 92.5988C140.265 91.7333 139.974 91.1564 139.392 90.8679C138.81 90.5795 138.228 90.291 137.355 90.291C136.482 90.291 135.609 90.5795 134.736 91.1564C133.863 91.7333 133.572 92.5988 133.281 93.4642C132.99 94.0411 132.99 95.195 132.99 96.9258V101.541H131.244V89.1371Z" fill="#9D722B"/>
<path d="M162.091 89.1375H163.837V98.9455C163.837 100.676 163.546 101.83 163.255 102.696C162.964 103.849 162.091 104.715 160.927 105.292C159.763 105.869 158.599 106.157 157.144 106.157C155.98 106.157 155.107 105.869 154.234 105.58C153.361 105.292 152.779 105.003 152.197 104.426C151.615 103.85 151.033 103.273 150.742 102.119H152.488C153.07 102.984 153.652 103.561 154.234 103.85C155.107 104.138 155.98 104.426 157.144 104.426C158.308 104.426 159.181 104.138 160.054 103.85C160.927 103.561 161.218 102.984 161.8 102.407C162.091 101.83 162.382 100.676 162.382 99.5224V98.9455C161.8 99.8109 160.927 100.388 160.054 100.676C159.181 100.965 158.308 101.253 157.144 101.253C155.98 101.253 154.816 100.965 153.943 100.388C153.07 99.8109 152.197 98.9455 151.615 98.0801C151.033 97.2147 150.742 96.0608 150.742 94.9069C150.742 93.753 151.033 92.5991 151.615 91.7337C152.197 90.8683 153.07 90.0029 153.943 89.426C155.107 88.849 155.98 88.5605 157.144 88.5605C158.017 88.5605 158.89 88.849 159.763 89.1375C160.636 89.426 161.218 90.2914 162.091 91.1568V89.1375V89.1375ZM157.435 90.2914C156.562 90.2914 155.689 90.5798 154.816 90.8683C153.943 91.4453 153.361 92.0222 153.07 92.5991C152.488 93.4645 152.488 94.33 152.488 95.1954C152.488 96.6377 153.07 97.7916 153.943 98.657C154.816 99.5224 155.98 100.099 157.435 100.099C158.89 100.099 160.054 99.5224 160.927 98.657C161.8 97.7916 162.382 96.6377 162.382 95.1954C162.382 94.33 162.091 93.4645 161.8 92.5991C161.509 91.7337 160.927 91.1568 160.054 90.8683C159.181 90.5798 158.308 90.2914 157.435 90.2914Z" fill="#9D722B"/>
<path d="M192.647 84.8101L200.504 101.541H198.758L196.139 96.0604H188.864L186.245 101.541H184.499L192.647 84.8101V84.8101ZM192.647 88.2717L189.737 94.3296H195.557L192.647 88.2717Z" fill="#9D722B"/>
<path d="M208.361 89.1375H210.107V90.8683C210.689 90.2914 210.98 89.7144 211.562 89.1375C212.144 88.849 212.726 88.5605 213.309 88.5605C213.891 88.5605 214.182 88.5605 214.764 88.849L213.891 90.2914C213.6 90.0029 213.308 90.0029 213.017 90.0029C212.435 90.0029 211.853 90.2914 211.562 90.5798C210.98 91.1568 210.689 91.7337 210.398 92.5991C210.107 93.1761 210.107 94.6184 210.107 96.9262V101.253H208.361V89.1375Z" fill="#9D722B"/>
<path d="M223.203 84.522H224.949V89.1375H227.568V90.5799H224.949V101.542H223.203V90.5799H221.166V89.1375H223.494V84.522H223.203Z" fill="#9D722B"/>
<path d="M242.118 90.5794L240.954 91.7333C240.081 90.8679 239.208 90.5794 238.335 90.5794C237.753 90.5794 237.462 90.8679 236.88 91.1564C236.589 91.4449 236.298 92.0218 236.298 92.3103C236.298 92.5987 236.589 93.1757 236.88 93.4642C237.171 93.7526 237.753 94.3296 238.917 94.9065C240.081 95.4835 240.954 96.0604 241.245 96.6373C241.536 97.2143 241.827 97.7912 241.827 98.6566C241.827 99.8105 241.536 100.676 240.663 101.253C240.081 101.83 238.917 102.407 238.044 102.407C237.462 102.407 236.589 102.118 236.007 101.83C235.425 101.541 234.843 100.964 234.261 100.676L235.134 99.522C236.007 100.387 236.88 100.964 237.753 100.964C238.335 100.964 238.917 100.676 239.499 100.387C240.081 100.099 240.081 99.522 240.081 98.9451C240.081 98.3682 239.79 98.0797 239.499 97.7912C239.208 97.5028 238.626 96.9258 237.462 96.3489C236.298 95.7719 235.425 95.195 235.134 94.618C234.843 94.0411 234.552 93.4641 234.552 92.5987C234.552 91.7333 234.843 90.8679 235.425 90.291C236.007 89.714 236.88 89.4256 237.753 89.4256C239.79 88.8486 240.954 89.4256 242.118 90.5794Z" fill="#9D722B"/>
<path d="M162.964 33.4625C162.964 33.4625 166.165 -4.03873 207.198 14.1349C207.198 14.1349 199.34 15.2888 195.557 21.9237C192.065 27.9816 183.626 42.9821 165.583 35.1933C165.583 35.1933 169.658 19.3274 188.573 15.5773C188.573 15.5773 174.023 15.8658 162.964 33.4625Z" fill="#9D722B"/>
<path d="M160.636 28.8471C160.636 28.8471 172.567 3.17318 139.102 0C139.102 0 143.758 3.75012 143.758 9.23107C143.758 14.4235 143.467 27.4047 158.308 28.8471C158.308 28.8471 161.509 17.0198 150.742 7.50024C150.742 7.78872 160.054 13.5581 160.636 28.8471Z" fill="#C49A6C"/>
</g>
<defs>
<clipPath id="clip0">
<rect width="294.5" height="106.446" fill="white"/>
</clipPath>
</defs>
</svg>
