<svg width="54" height="68" viewBox="0 0 54 68" fill="none" xmlns="http://www.w3.org/2000/svg">
<g clip-path="url(#clip0)">
<path d="M0 67.8896V28.0414C0 24.7945 2.67033 22.1379 5.93406 22.1379V16.2345C5.93406 14.611 7.26922 13.2828 8.90109 13.2828H11.8681V1.47586C11.8681 0.590345 12.4615 0 13.3516 0C14.2417 0 14.8351 0.590345 14.8351 1.47586V13.2828H17.8022C19.434 13.2828 20.7692 14.611 20.7692 16.2345V22.1379C24.0329 22.1379 26.7033 24.7945 26.7033 28.0414V39.8483H37.0879V30.9931H43.0219V26.5655H51.923V30.9931H53.4065V67.8896H0ZM17.8022 17.7103C17.8022 16.8248 17.2088 16.2345 16.3187 16.2345H10.3846C9.49449 16.2345 8.90109 16.8248 8.90109 17.7103V22.1379H17.8022V17.7103ZM23.7362 28.0414C23.7362 26.4179 22.4011 25.0897 20.7692 25.0897H5.93406C4.30219 25.0897 2.96703 26.4179 2.96703 28.0414V64.9379H23.7362V28.0414ZM37.0879 42.8H26.7033V64.9379H37.0879V42.8ZM50.4395 33.9448H40.0549V64.9379H50.4395V33.9448ZM44.5054 38.3724H45.9889C46.8791 38.3724 47.4725 38.9628 47.4725 39.8483V41.3241C47.4725 42.2097 46.8791 42.8 45.9889 42.8H44.5054C43.6153 42.8 43.0219 42.2097 43.0219 41.3241V39.8483C43.0219 38.9628 43.6153 38.3724 44.5054 38.3724ZM44.5054 47.2276H45.9889C46.8791 47.2276 47.4725 47.8179 47.4725 48.7034V50.1793C47.4725 51.0648 46.8791 51.6552 45.9889 51.6552H44.5054C43.6153 51.6552 43.0219 51.0648 43.0219 50.1793V48.7034C43.0219 47.8179 43.6153 47.2276 44.5054 47.2276ZM44.5054 56.0828H45.9889C46.8791 56.0828 47.4725 56.6731 47.4725 57.5586V59.0345C47.4725 59.92 46.8791 60.5103 45.9889 60.5103H44.5054C43.6153 60.5103 43.0219 59.92 43.0219 59.0345V57.5586C43.0219 56.6731 43.6153 56.0828 44.5054 56.0828ZM31.1538 47.2276H32.6373C33.5274 47.2276 34.1208 47.8179 34.1208 48.7034V50.1793C34.1208 51.0648 33.5274 51.6552 32.6373 51.6552H31.1538C30.2637 51.6552 29.6703 51.0648 29.6703 50.1793V48.7034C29.6703 47.8179 30.2637 47.2276 31.1538 47.2276ZM31.1538 56.0828H32.6373C33.5274 56.0828 34.1208 56.6731 34.1208 57.5586V59.0345C34.1208 59.92 33.5274 60.5103 32.6373 60.5103H31.1538C30.2637 60.5103 29.6703 59.92 29.6703 59.0345V57.5586C29.6703 56.6731 30.2637 56.0828 31.1538 56.0828ZM17.8022 60.5103H16.3187C15.4285 60.5103 14.8351 59.92 14.8351 59.0345V57.5586C14.8351 56.6731 15.4285 56.0828 16.3187 56.0828H17.8022C18.6923 56.0828 19.2857 56.6731 19.2857 57.5586V59.0345C19.2857 59.92 18.6923 60.5103 17.8022 60.5103ZM17.8022 51.6552H16.3187C15.4285 51.6552 14.8351 51.0648 14.8351 50.1793V48.7034C14.8351 47.8179 15.4285 47.2276 16.3187 47.2276H17.8022C18.6923 47.2276 19.2857 47.8179 19.2857 48.7034V50.1793C19.2857 51.0648 18.6923 51.6552 17.8022 51.6552ZM17.8022 42.8H16.3187C15.4285 42.8 14.8351 42.2097 14.8351 41.3241V39.8483C14.8351 38.9628 15.4285 38.3724 16.3187 38.3724H17.8022C18.6923 38.3724 19.2857 38.9628 19.2857 39.8483V41.3241C19.2857 42.2097 18.6923 42.8 17.8022 42.8ZM17.8022 33.9448H16.3187C15.4285 33.9448 14.8351 33.3545 14.8351 32.469V30.9931C14.8351 30.1076 15.4285 29.5172 16.3187 29.5172H17.8022C18.6923 29.5172 19.2857 30.1076 19.2857 30.9931V32.469C19.2857 33.3545 18.6923 33.9448 17.8022 33.9448ZM10.3846 60.5103H8.90109C8.01098 60.5103 7.41757 59.92 7.41757 59.0345V57.5586C7.41757 56.6731 8.01098 56.0828 8.90109 56.0828H10.3846C11.2747 56.0828 11.8681 56.6731 11.8681 57.5586V59.0345C11.8681 59.92 11.2747 60.5103 10.3846 60.5103ZM10.3846 51.6552H8.90109C8.01098 51.6552 7.41757 51.0648 7.41757 50.1793V48.7034C7.41757 47.8179 8.01098 47.2276 8.90109 47.2276H10.3846C11.2747 47.2276 11.8681 47.8179 11.8681 48.7034V50.1793C11.8681 51.0648 11.2747 51.6552 10.3846 51.6552ZM10.3846 42.8H8.90109C8.01098 42.8 7.41757 42.2097 7.41757 41.3241V39.8483C7.41757 38.9628 8.01098 38.3724 8.90109 38.3724H10.3846C11.2747 38.3724 11.8681 38.9628 11.8681 39.8483V41.3241C11.8681 42.2097 11.2747 42.8 10.3846 42.8ZM10.3846 33.9448H8.90109C8.01098 33.9448 7.41757 33.3545 7.41757 32.469V30.9931C7.41757 30.1076 8.01098 29.5172 8.90109 29.5172H10.3846C11.2747 29.5172 11.8681 30.1076 11.8681 30.9931V32.469C11.8681 33.3545 11.2747 33.9448 10.3846 33.9448Z" fill="#C49A6C"/>
</g>
<defs>
<clipPath id="clip0">
<rect width="53.4065" height="67.8896" fill="white"/>
</clipPath>
</defs>
</svg>
