<svg width="63" height="38" viewBox="0 0 63 38" fill="none" xmlns="http://www.w3.org/2000/svg">
<g clip-path="url(#clip0)">
<path d="M18.3234 7.97856H18.2609C17.4025 7.97856 16.7002 7.28811 16.7002 6.44424C16.7002 5.60036 17.4025 4.90991 18.2609 4.90991H18.3234C19.1818 4.90991 19.8841 5.60036 19.8841 6.44424C19.8841 7.28811 19.1818 7.97856 18.3234 7.97856Z" fill="#C49A6C"/>
<path d="M18.2921 13.9317H18.2297C17.3713 13.9317 16.6689 13.2412 16.6689 12.3974C16.6689 11.5535 17.3713 10.863 18.2297 10.863H18.2921C19.1505 10.863 19.8529 11.5535 19.8529 12.3974C19.8529 13.2412 19.1505 13.9317 18.2921 13.9317Z" fill="#C49A6C"/>
<path d="M31.5426 7.97856H31.4802C30.6218 7.97856 29.9194 7.28811 29.9194 6.44424C29.9194 5.60036 30.6218 4.90991 31.4802 4.90991H31.5426C32.401 4.90991 33.1034 5.60036 33.1034 6.44424C33.1034 7.28811 32.401 7.97856 31.5426 7.97856Z" fill="#C49A6C"/>
<path d="M31.5119 13.9317H31.4494C30.591 13.9317 29.8887 13.2412 29.8887 12.3974C29.8887 11.5535 30.591 10.863 31.4494 10.863H31.5119C32.3703 10.863 33.0726 11.5535 33.0726 12.3974C33.0726 13.2412 32.3703 13.9317 31.5119 13.9317Z" fill="#C49A6C"/>
<path d="M45.1525 7.97856H45.0901C44.2316 7.97856 43.5293 7.28811 43.5293 6.44424C43.5293 5.60036 44.2316 4.90991 45.0901 4.90991H45.1525C46.0109 4.90991 46.7132 5.60036 46.7132 6.44424C46.7132 7.28811 46.0109 7.97856 45.1525 7.97856Z" fill="#C49A6C"/>
<path d="M45.1212 13.9317H45.0588C44.2004 13.9317 43.498 13.2412 43.498 12.3974C43.498 11.5535 44.2004 10.863 45.0588 10.863H45.1212C45.9796 10.863 46.682 11.5535 46.682 12.3974C46.682 13.2412 45.9796 13.9317 45.1212 13.9317Z" fill="#C49A6C"/>
<path d="M51.7391 24.81H11.2531C10.3947 24.81 9.69233 24.1196 9.69233 23.2757V13.0724C9.69233 12.8116 9.47383 12.5968 9.2085 12.5968H6.39914C5.54072 12.5968 4.83838 11.9063 4.83838 11.0625V3.54429C4.85399 1.5957 6.46157 0 8.44373 0H54.5485C56.5306 0 58.1538 1.5957 58.1538 3.54429V11.0625C58.1538 11.9063 57.4515 12.5968 56.5931 12.5968H53.7837C53.5184 12.5968 53.2999 12.8116 53.2999 13.0724V23.2757C53.2999 24.1196 52.5975 24.81 51.7391 24.81ZM12.8138 21.7414H50.1784V13.0724C50.1784 11.1238 51.8015 9.52815 53.7837 9.52815H55.0323V3.54429C55.0323 3.28345 54.8138 3.06865 54.5485 3.06865H8.44373C8.1784 3.06865 7.95989 3.28345 7.95989 3.54429V9.52815H9.2085C11.1907 9.52815 12.8138 11.1238 12.8138 13.0724V21.7414Z" fill="#C49A6C"/>
<path d="M59.4024 37.0078H3.60535C1.62319 37.0078 0 35.4274 0 33.4789V13.0724C0 11.1238 1.62319 9.52808 3.60535 9.52808H9.22407C11.2062 9.52808 12.8294 11.1238 12.8294 13.0724V21.7413H50.1939V13.0724C50.1939 11.1238 51.8171 9.52808 53.7993 9.52808H59.418C61.4001 9.52808 63.0233 11.1238 63.0233 13.0724V33.4789C62.9921 35.4274 61.3845 37.0078 59.4024 37.0078ZM3.60535 12.5967C3.34002 12.5967 3.12151 12.8115 3.12151 13.0724V33.4789C3.12151 33.7397 3.34002 33.9545 3.60535 33.9545H59.4024C59.6677 33.9545 59.8862 33.7397 59.8862 33.4789V13.0724C59.8862 12.8115 59.6677 12.5967 59.4024 12.5967H53.7837C53.5183 12.5967 53.2998 12.8115 53.2998 13.0724V23.2756C53.2998 24.1195 52.5975 24.8099 51.7391 24.8099H11.253C10.3946 24.8099 9.69229 24.1195 9.69229 23.2756V13.0724C9.69229 12.8115 9.47379 12.5967 9.20846 12.5967H3.60535Z" fill="#C49A6C"/>
</g>
<defs>
<clipPath id="clip0">
<rect width="62.9921" height="37.0079" fill="white"/>
</clipPath>
</defs>
</svg>
