<svg width="62" height="68" viewBox="0 0 62 68" fill="none" xmlns="http://www.w3.org/2000/svg">
<g clip-path="url(#clip0)">
<path d="M42.1525 34.4404H19.7319V38.0515H42.1525V34.4404Z" fill="#C49A6C"/>
<path d="M61.9526 50.8481H48.4183V26.8797H45.8436L44.4993 21.4857H45.4335V17.8747H43.5879L42.3119 12.7967H43.1322V9.1856H41.4233L39.9878 3.45306H32.7877V0H29.1421V3.47563H21.9192L20.4838 9.20817H18.7749V12.8192H19.5952L18.3192 17.8973H16.4736V21.5083H17.4078L16.0635 26.9023H13.5343V50.8706H0V54.4817H0.0455702V57.3931V59.1986V67.2106H61.8615V59.1986H61.9071V54.4817H61.9526V50.8481ZM36.9118 57.3705H24.9725V46.1086L26.8636 44.1676H35.0207L36.9118 46.1086V57.3705ZM36.5701 40.534H25.3142L21.3268 44.6416V57.3705H17.18V30.5134H44.7727V57.3705H40.5574V44.6416L36.5701 40.534ZM24.7902 7.08668H37.1169L37.641 9.20817H24.2433L24.7902 7.08668ZM23.3319 12.8192H38.5524L39.8283 17.8973H22.0787L23.3319 12.8192ZM21.1673 21.5083H40.7397L42.084 26.9023H19.823L21.1673 21.5083ZM3.69118 54.4591H13.5343V57.3705H3.69118V54.4591ZM58.2159 63.577H3.69118V60.9816H13.5343H21.3496H40.5574H48.4183H58.2159V63.577ZM58.2615 57.3705H48.4183V54.4591H58.2615V57.3705Z" fill="#C49A6C"/>
</g>
<defs>
<clipPath id="clip0">
<rect width="61.9526" height="67.1881" fill="white"/>
</clipPath>
</defs>
</svg>
