<svg width="48" height="67" viewBox="0 0 48 67" fill="none" xmlns="http://www.w3.org/2000/svg">
<g clip-path="url(#clip0)">
<path d="M38.8618 62.0065C40.6533 61.4833 42.3104 60.9003 43.878 60.3024C43.7436 61.0498 43.5645 61.7973 43.3555 62.5297C41.5192 63.2772 39.6381 63.9349 37.7272 64.473C33.2036 65.7736 28.5457 66.521 23.8431 66.7004C19.1404 66.521 14.4825 65.7736 9.95898 64.473C8.04805 63.9199 6.16698 63.2772 4.33069 62.5297C4.12168 61.7973 3.94253 61.0498 3.80817 60.3024C5.37573 60.9003 7.03287 61.4833 8.82436 62.0065C13.7062 63.4117 18.7522 64.2339 23.8281 64.4282C28.919 64.2339 33.965 63.4117 38.8618 62.0065ZM25.2912 20.2254C25.2912 19.463 24.6642 18.8352 23.9028 18.8352C23.1414 18.8352 22.5144 19.463 22.5144 20.2254C22.5144 20.9877 23.1414 21.6156 23.9028 21.6156C24.6642 21.6156 25.2912 20.9877 25.2912 20.2254ZM46.6847 57.2379C44.5199 58.1199 42.3253 58.8823 40.086 59.5251C34.7861 61.0498 29.3221 61.9318 23.8281 62.1261C18.3193 61.9168 12.8552 61.0498 7.57031 59.5251C5.33094 58.8823 3.13636 58.1199 0.971636 57.2379C0.329684 55.0704 -0.431702 51.4828 0.329684 47.2822C2.71835 33.9631 17.8117 26.7579 22.589 24.7697C21.8575 24.0522 21.8575 22.8713 22.589 22.1388C23.3056 21.4063 24.485 21.4063 25.2166 22.1388C25.9481 22.8563 25.9481 24.0372 25.2166 24.7697C25.2016 24.7847 25.1867 24.7996 25.1568 24.8146C30.0536 26.8625 44.9379 34.0528 47.3266 47.2822C48.088 51.4828 47.3266 55.0704 46.6847 57.2379ZM42.3851 47.357C40.2651 35.6074 25.6196 29.8821 23.8281 29.2094C22.0516 29.8821 7.40609 35.6074 5.27123 47.357C4.67406 50.6755 5.27123 53.5008 5.79375 55.2199C7.49567 55.9075 9.24238 56.5055 11.004 57.0287C15.1842 58.2395 19.4838 58.9271 23.8281 59.0916C28.1725 58.9271 32.487 58.2395 36.6672 57.0287C38.4288 56.5204 40.1755 55.9225 41.8775 55.2199C42.3701 53.5008 42.9822 50.6755 42.3851 47.357ZM22.6935 18.0279C22.9921 18.0728 25.0523 18.1027 25.6794 17.9831C30.2477 17.0712 33.3828 12.8557 32.9349 8.20675C31.9347 11.899 28.1427 14.0815 24.4701 13.0949C20.7826 12.0934 18.6029 8.29644 19.5883 4.6191C20.1556 2.5263 21.6485 0.82217 23.6341 0C18.6477 0.134537 14.7064 4.30518 14.8408 9.29799C14.9752 13.7377 18.2894 17.43 22.6935 18.0279Z" fill="#C49A6C"/>
</g>
<defs>
<clipPath id="clip0">
<rect width="47.6538" height="66.7153" fill="white"/>
</clipPath>
</defs>
</svg>
